# xmcd
#
# Track frame offsets:
#	150
#	14495
#	33920
#	48695
#	63559
#	78176
#	92659
#	111134
#	127319
#	138269
#	156474
#	173649
#
# Disc length: 2520 seconds
#
# Revision: 0
# Processed by: cddbd v1.5.2PL0 Copyright (c) Steve Scherf et al.
# Submitted via: EasyCDDAExtractor 16.0.6.1
#
DISCID=a209d60c
DTITLE=Ρεμπέτικο τσαρδί - Τραγούδια των χασικλήδων και της φυλακής
DYEAR=1985
DGENRE=Ρεμπέτικη
TTITLE0=Σύρος Νικόλας - Πάντα με γλυκό χασίσι [Δημ. Γκόγκος]
TTITLE1=Τζώρτζης Γιώργος - Τέσσερις μάγκες του Περαία [Γ. Μπάτης]
TTITLE2=Τζώρτζης Γιώργος - Ο λαθρέμπορας [ανώνυμος]
TTITLE3=Σύρος Νικόλας - Στην υπόγα [Γ. Κατσαρός]
TTITLE4=Σύρος Νικόλας - Τα συμβάντα στου Ψυρρή [ανώνυμος]
TTITLE5=Σύρος Νικόλας-Τζώρτζης Γιώργος - Παίζει το μπαγλαμαδάκι [Σ. Κηρομύτης(
TTITLE5=;)]
TTITLE6=Τζώρτζης Γιώργος - Σ' ένα τεκέ μπουκάρανε [ανώνυμος]
TTITLE7=Σύρος Νικόλας - Ο αλανιάρης [Μ. Βαμβακάρης]
TTITLE8=Τζώρτζης Γιώργος - Νταμίρα [ανώνυμος]
TTITLE9=Σύρος Νικόλας - Ο λαθρέμπορας [Βαγγ. Παπάζογλου]
TTITLE10=Τζώρτζης Γιώργος - Μάς κυνηγούν τον αργιλέ [ανώνυμος]
TTITLE11=Τζώρτζης Γιώργος - Χθες το βράδυ στον τεκέ μας [ανώνυμος]
EXTD=
EXTT0=
EXTT1=
EXTT2=
EXTT3=
EXTT4=
EXTT5=
EXTT6=
EXTT7=
EXTT8=
EXTT9=
EXTT10=
EXTT11=
PLAYORDER=
